<?xml version="1.0" standalone="no"?>
<!DOCTYPE svg PUBLIC "-//W3C//DTD SVG 20010904//EN"
 "http://www.w3.org/TR/2001/REC-SVG-20010904/DTD/svg10.dtd">
<svg version="1.0" xmlns="http://www.w3.org/2000/svg"
 width="420.000000pt" height="420.000000pt" viewBox="0 0 420.000000 420.000000"
 preserveAspectRatio="xMidYMid meet">
<metadata>
Created by potrace 1.14, written by Peter Selinger 2001-2017
</metadata>
<g transform="translate(0.000000,420.000000) scale(0.100000,-0.100000)"
fill="#000000" stroke="none">
<path d="M1648 3462 c-7 -2 -30 -12 -50 -23 -21 -10 -39 -15 -42 -11 -8 14
-75 13 -108 -1 -39 -17 -78 -50 -78 -65 0 -16 -30 -29 -60 -26 -44 3 -111 -44
-116 -84 -2 -9 -8 -18 -13 -20 -6 -2 -11 -9 -11 -16 0 -12 -57 -66 -70 -66
-11 0 -40 -65 -47 -105 -3 -22 -6 -58 -5 -80 1 -22 -6 -62 -15 -90 -9 -27 -18
-54 -19 -60 -1 -5 -5 -23 -9 -40 -4 -16 -8 -82 -10 -146 -2 -112 17 -263 45
-342 8 -24 6 -29 -14 -37 -48 -18 -46 -113 3 -216 36 -77 67 -109 116 -123 36
-10 45 -19 89 -97 78 -135 172 -256 178 -227 0 4 2 13 3 18 2 6 3 14 4 19 1
11 30 -24 31 -36 0 -5 -5 -8 -10 -8 -17 0 -152 -69 -201 -103 -49 -34 -92 -86
-103 -127 -11 -38 -40 -100 -48 -100 -3 0 -12 -16 -18 -36 -10 -30 -10 -39 2
-50 12 -13 7 -22 -39 -71 -29 -30 -53 -60 -53 -65 0 -5 -7 -16 -15 -24 -8 -9
-15 -26 -15 -39 0 -13 -5 -36 -11 -52 -24 -61 -35 -201 -44 -548 -2 -82 -6
-186 -10 -230 -4 -44 -8 -91 -8 -105 l-2 -25 966 -3 967 -2 -3 32 c-2 18 -6
78 -10 133 -3 55 -8 111 -10 125 -2 14 -7 63 -10 110 -4 47 -8 92 -10 100 -2
8 -6 47 -10 85 -4 39 -10 79 -12 90 -2 11 -6 65 -8 119 -3 91 -2 101 17 118
29 25 37 23 88 -23 25 -23 62 -55 83 -73 21 -17 49 -40 61 -51 12 -11 53 -47
90 -80 38 -33 83 -73 101 -90 49 -45 100 -88 125 -105 12 -8 34 -25 48 -37 15
-13 33 -23 40 -23 6 0 12 -3 12 -8 0 -7 52 -33 67 -34 4 0 16 -4 26 -10 48
-25 166 -30 239 -9 49 14 148 94 148 119 0 6 5 12 11 12 5 0 8 4 5 9 -4 5 -2
11 2 13 5 1 18 30 29 63 23 71 29 204 14 291 -12 66 -17 130 -26 314 -4 69 -8
136 -10 150 -2 14 -7 54 -10 90 -3 36 -11 92 -16 125 -6 33 -13 73 -16 90 -10
62 -47 141 -83 177 -33 33 -38 45 -43 100 -3 35 -9 83 -12 108 -6 44 -6 45 32
62 40 18 78 51 103 88 8 12 23 31 33 42 9 12 17 27 17 35 0 7 4 13 9 13 5 0
14 13 21 30 7 16 21 40 31 52 23 28 26 32 64 83 16 22 40 51 52 65 13 14 23
30 23 37 0 7 5 13 10 13 6 0 10 6 10 14 0 8 5 16 10 18 6 2 13 16 15 31 4 20
-1 34 -19 52 -13 13 -30 22 -37 21 -28 -5 -59 -18 -59 -24 0 -4 -14 -23 -30
-42 -39 -45 -41 -49 -70 -90 -23 -33 -58 -70 -67 -70 -6 0 0 9 74 117 35 51
63 97 63 103 0 5 4 10 8 10 5 0 15 12 23 28 8 15 22 36 31 46 10 10 15 23 12
28 -3 4 0 8 5 8 6 0 11 7 11 15 0 8 5 15 10 15 19 0 10 59 -12 80 -36 33 -72
26 -112 -24 -20 -23 -36 -48 -36 -55 0 -6 -4 -11 -10 -11 -5 0 -10 -7 -10 -15
0 -8 -4 -15 -10 -15 -5 0 -10 -6 -10 -13 0 -8 -9 -22 -20 -32 -11 -10 -20 -24
-20 -31 0 -7 -3 -14 -7 -16 -10 -4 -53 -65 -53 -73 0 -8 -27 -35 -34 -35 -6 0
19 51 47 95 6 11 31 50 53 86 23 36 45 76 49 88 3 11 11 21 16 21 6 0 8 4 5 9
-4 5 -2 11 2 13 11 4 62 113 62 132 0 42 -75 71 -111 43 -18 -14 -109 -161
-109 -176 0 -6 -4 -11 -9 -11 -5 0 -15 -16 -21 -35 -6 -19 -16 -35 -21 -35 -5
0 -9 -5 -9 -11 0 -6 -13 -31 -30 -56 -16 -24 -30 -48 -30 -52 0 -5 -7 -11 -15
-15 -19 -7 -19 -9 10 52 14 29 25 56 25 62 0 5 5 10 11 10 5 0 7 5 4 10 -3 6
-2 10 4 10 5 0 17 21 27 48 10 26 23 54 29 62 7 8 19 36 27 61 14 41 14 48 -1
67 -20 26 -63 37 -88 24 -10 -6 -29 -32 -42 -59 -13 -26 -32 -60 -42 -74 -10
-14 -16 -29 -12 -33 3 -3 0 -6 -7 -6 -7 0 -11 -2 -8 -5 10 -11 -126 -264 -151
-279 -12 -8 -37 32 -50 81 -20 74 -64 112 -139 119 -25 3 -40 -3 -58 -21 -33
-33 -30 -54 12 -108 52 -67 63 -106 60 -221 -4 -123 16 -239 54 -325 29 -65
29 -66 9 -81 -18 -14 -20 -28 -20 -132 -1 -108 -3 -120 -24 -144 -13 -15 -26
-43 -30 -63 -7 -37 -7 -207 -1 -251 2 -14 7 -57 11 -97 3 -39 8 -84 11 -100
l5 -28 -27 25 c-16 14 -42 39 -60 55 -17 17 -61 56 -97 88 -37 33 -102 95
-146 138 -43 43 -83 79 -89 79 -5 0 -12 7 -16 15 -3 8 -12 15 -21 15 -8 0 -15
5 -15 10 0 6 -7 10 -15 10 -8 0 -15 4 -15 10 0 5 -19 15 -42 22 -24 6 -52 17
-63 24 -25 15 -117 16 -169 3 -21 -6 -40 -9 -42 -7 -2 2 8 39 21 83 14 43 27
94 29 114 3 20 8 54 10 76 3 22 8 63 10 92 2 28 8 58 12 65 12 19 14 35 15
108 3 153 -31 247 -76 210 -18 -15 -22 -4 -23 61 0 49 -6 86 -28 199 -15 75
-59 210 -84 261 -27 53 -90 129 -108 129 -4 0 -8 17 -9 38 -1 20 -3 46 -6 57
-3 11 -6 25 -6 31 -1 14 -51 66 -78 82 -13 6 -41 12 -62 12 -22 0 -44 6 -48
13 -4 6 -26 24 -49 40 -45 30 -94 35 -136 13 -16 -8 -28 -11 -28 -6 0 4 -8 11
-17 16 -22 9 -137 21 -155 16z"/>
</g>
</svg>
